<svg width="415" height="182" viewBox="0 0 415 182" fill="none" xmlns="http://www.w3.org/2000/svg">
<path d="M145.93 91.168C145.93 106.528 143.541 119.925 138.762 131.36C133.983 142.624 127.242 152.011 118.538 159.52C109.834 166.859 99.4233 172.405 87.306 176.16C75.1887 179.744 61.8767 181.536 47.37 181.536C40.202 181.536 32.266 181.195 23.562 180.512C15.0287 180 7.26333 178.891 0.266001 177.184V5.15199C7.26333 3.44533 15.0287 2.33599 23.562 1.82399C32.266 1.14132 40.202 0.799988 47.37 0.799988C61.8767 0.799988 75.1887 2.67732 87.306 6.43199C99.4233 10.016 109.834 15.5627 118.538 23.072C127.242 30.4107 133.983 39.7973 138.762 51.232C143.541 62.496 145.93 75.808 145.93 91.168ZM49.418 159.776C72.97 159.776 90.5487 153.803 102.154 141.856C113.759 129.739 119.562 112.843 119.562 91.168C119.562 69.4933 113.759 52.6827 102.154 40.736C90.5487 28.6187 72.97 22.56 49.418 22.56C42.4207 22.56 36.9593 22.6453 33.034 22.816C29.2793 22.9867 26.634 23.1573 25.098 23.328V159.008C26.634 159.179 29.2793 159.349 33.034 159.52C36.9593 159.691 42.4207 159.776 49.418 159.776Z" fill="#D54C00"/>
<path d="M414.893 158.496V180H308.141V2.592H332.973V158.496H414.893Z" fill="#D54C00"/>
<path d="M175.816 180V158.949C175.816 158.949 160 140.186 160 128.288C160 112.271 223.791 18 223.791 18C223.791 18 286 112.271 286 128.288C286 140.186 270.184 158.949 270.184 158.949V180" stroke="#D54C00" stroke-width="20"/>
</svg>
